<svg width="313" height="181" viewBox="0 0 313 181" fill="none" xmlns="http://www.w3.org/2000/svg">
<path d="M95.6604 1.44718C97.8338 2.62291 99.7196 4.40359 101.343 6.6957C103.036 8.91352 104.478 11.2062 105.661 13.574L106.65 15.5516L104.587 16.3454C103.518 16.7565 102.112 17.9263 100.435 20.3194C98.8615 22.6203 97.4038 25.1098 96.0636 27.7902C94.4642 30.9889 92.9224 34.4408 91.4389 38.1475C90.4373 40.902 89.1241 44.5288 87.4993 49.0283C85.8732 53.5315 84.1214 58.4737 82.2441 63.8552C80.4869 69.2518 78.605 74.8347 76.5984 80.604C74.7161 86.3761 72.896 91.8364 71.1381 96.9845C69.3807 102.131 67.7473 106.781 66.238 110.931C64.8596 114.941 63.7136 118.003 62.8042 120.083C61.5541 123.084 60.1158 126.586 58.4893 130.59L58.4808 130.611C56.8446 134.512 55.0836 138.537 53.1981 142.686C51.4367 146.837 49.6124 150.926 47.7252 154.952C45.8264 159.129 43.92 162.88 42.0047 166.202C39.3723 170.964 37.0458 174.547 35.0272 176.848C32.8903 179.567 29.9961 180.96 26.5186 180.96H26.4784L26.4383 180.958C22.5546 180.803 19.2855 178.755 16.6399 175.274C14.0934 171.924 11.9362 167.642 10.133 162.49C8.33876 157.364 6.81026 151.56 5.54117 145.088L5.53385 145.05C4.39766 138.612 3.4513 132.111 2.69399 125.548L2.6935 125.543C1.93578 118.85 1.42993 112.403 1.17688 106.204C0.925204 99.9117 0.798828 94.362 0.798828 89.5608V89.5274C0.925582 81.9222 1.49615 74.1329 2.50856 66.1602L2.51195 66.1335C3.6441 58.0827 4.83999 50.5303 6.0995 43.477L6.10559 43.4429C7.48891 36.4005 8.81136 30.1668 10.0725 24.7441L10.08 24.7118C11.4535 19.2178 12.46 15.3168 13.0956 13.0262C13.9907 9.33236 15.2946 6.36729 17.2932 4.67943C19.3504 2.82002 22.7827 1.99431 26.9617 1.74103L27.0224 1.73736H31.6999L35.5634 2.12371C37.0312 2.27048 38.4014 2.64291 39.6489 3.26664L41.4443 4.16437L40.5466 5.95984C36.08 14.893 32.4855 23.9429 29.7601 33.1104C27.0236 42.3147 24.9103 51.5152 23.4189 60.7122C21.9256 69.9209 20.993 79.0002 20.6201 87.9507C20.2458 96.8104 20.1834 105.417 20.4325 113.77C20.6824 120.388 21.0568 126.562 21.5551 132.293C22.0506 137.866 22.856 143.569 23.9727 149.401C24.5264 152.23 25.1096 154.367 25.703 155.865C26.3407 157.475 26.8405 157.95 26.9655 158.023C27.2037 158.162 27.3251 158.157 27.5138 158.081C27.8191 157.959 28.351 157.588 29.0642 156.656L29.0822 156.632L29.1008 156.609C30.5346 154.845 32.0115 152.064 33.4841 148.137L33.4976 148.101L33.5124 148.065C35.112 144.251 36.4648 140.377 37.5715 136.442L37.5737 136.434C38.3318 133.781 39.4649 130.004 40.9705 125.111C42.4782 120.085 44.1736 114.56 46.0566 108.534C47.9376 102.515 49.8814 96.2447 51.888 89.7233L51.8983 89.6897C54.029 83.1722 55.9717 77.1572 57.7258 71.6443C59.4804 66.0044 60.9838 61.1184 62.2361 56.9859L62.2521 56.933C63.6308 52.7968 64.5809 50.0113 65.0936 48.6015L65.1004 48.5826C65.8478 46.5897 66.8475 43.8409 68.1007 40.3318L68.1139 40.2949C69.4957 36.652 70.9405 32.884 72.4476 28.9908L72.4596 28.9598C74.0934 24.9382 75.7275 20.9794 77.3614 17.0829L77.3734 17.0545C79.1397 13.0171 80.7856 9.47196 82.3102 6.42269L82.3257 6.39173C83.9244 3.32763 85.972 1.01896 88.6697 0.299592C91.1139 -0.352212 93.4862 0.0725251 95.6604 1.44718Z" fill="#2C7BE5"/>
<path fill-rule="evenodd" clip-rule="evenodd" d="M309.021 130.872C310.953 127.776 312.226 124.961 312.666 122.471C312.996 120.653 312.721 118.611 312.042 116.438C311.39 114.351 310.548 112.152 309.522 109.841C308.497 107.408 307.345 104.979 306.068 102.552C304.82 100.18 303.634 97.8711 302.512 95.626C301.676 93.9541 300.892 92.0875 300.162 90.0216L300.16 90.0146C299.547 88.2992 298.87 86.2693 298.128 83.9216C297.594 81.8821 297.151 79.6356 296.802 77.1785C298.425 75.2142 299.71 73.5846 300.646 72.2984L300.67 72.2652L300.693 72.2312C301.718 70.6927 302.522 69.3606 303.076 68.2515C303.589 67.2259 303.993 66.3543 304.274 65.6528L304.342 65.4817L304.378 65.301C304.772 63.3308 304.129 61.534 302.817 60.0382C301.648 58.5889 300.156 57.3268 298.381 56.2345L298.305 56.1882L298.226 56.1487C295.614 54.8428 292.758 54.9104 289.85 56.0638C287.118 57.0257 284.491 58.5183 281.97 60.5088C279.456 62.4934 277.265 64.7478 275.403 67.271C273.579 69.6198 272.288 71.8514 271.688 73.9463C270.946 76.4752 271.049 78.9175 272.225 81.1026L272.253 81.1537L272.283 81.203C273.093 82.519 273.202 83.2262 273.188 83.5114L273.157 83.5703C273.078 83.7161 272.96 83.9187 272.797 84.1854C272.475 84.7121 272.012 85.431 271.399 86.3501C270.126 88.1343 268.735 90.2217 267.227 92.6081L262.74 99.3398C261.468 101.142 260.473 102.528 259.752 103.504C259.225 104.191 258.675 104.905 258.102 105.647C255.988 108.382 253.622 111.309 251.002 114.428L250.996 114.434C248.524 117.401 245.993 120.179 243.403 122.769C240.962 125.21 238.601 127.267 236.321 128.95C234.09 130.471 232.435 131.026 231.273 131.026C230.6 131.026 229.989 130.913 229.424 130.698C229.069 130.422 228.647 129.944 228.197 129.158C227.79 128.099 227.396 126.542 227.042 124.423C226.705 122.398 226.414 119.699 226.174 116.304C226.676 115.609 227.217 114.875 227.797 114.101L227.831 114.056L227.862 114.01C228.687 112.772 229.49 111.295 230.273 109.598L230.295 109.547C231.077 107.722 231.849 105.596 232.613 103.18C233.511 100.612 234.399 97.5617 235.28 94.0392C236.566 89.6586 237.344 85.3835 237.605 81.2171C237.856 77.1932 237.985 74.1311 237.985 72.0586C237.985 70.9975 237.61 70.0052 236.832 69.2277C236.107 68.5023 235.16 68.0914 234.206 67.8529C233.543 67.6871 232.804 67.6154 232.023 67.6058C231.17 67.4662 230.216 67.4906 229.217 67.611C226.673 67.7446 224.457 68.1956 222.884 69.2168C221.954 69.7564 221.17 70.6434 220.493 71.6247C219.78 72.658 219.071 73.9685 218.359 75.5197C217.583 77.0734 216.63 79.1743 215.501 81.8067L215.485 81.8444L215.471 81.8828C214.445 84.5751 213.425 87.6356 212.41 91.0603L212.397 91.1089C211.504 94.4244 210.678 98.0475 209.917 101.976L209.909 102.028C209.262 105.906 208.941 109.906 208.941 114.026C208.941 115.995 209.092 117.92 209.398 119.8C207.104 123.242 204.623 126.058 201.966 128.275C199.251 130.42 196.548 131.402 193.822 131.402C189.123 131.402 186.708 130.062 185.596 128.093C184.274 125.755 183.727 122 184.338 116.506L184.34 116.484C184.575 114.137 185.232 110.936 186.348 106.841C187.339 103.249 188.77 98.5836 190.644 92.8362C192.639 87.1012 195.324 79.9192 198.703 71.2846L199.445 69.3884L197.538 68.6735C196.274 68.1995 194.901 67.9811 193.446 67.9811C192.242 67.9811 191.039 68.048 189.837 68.1816L189.768 68.1893L189.699 68.2017C188.309 68.4545 186.98 68.7076 185.713 68.9611L185.613 68.981L185.516 69.0108C181.829 70.1453 178.876 72.2993 176.732 75.4444L176.72 75.4618C174.85 78.2673 173.339 81.5618 172.167 85.3183C172.011 85.7204 171.801 86.3417 171.544 87.1505C169.711 88.4479 167.753 89.7483 165.669 91.0513C162.826 92.7811 159.858 94.4508 156.763 96.0601C154.793 97.0846 152.878 98.0055 151.019 98.824L151.011 98.8148L151.031 98.5874L151.033 98.5724C151.161 97.036 151.228 95.7213 151.228 94.6418C151.228 89.5406 150.38 85.0887 148.589 81.3631C146.875 77.6757 144.738 74.5809 142.152 72.1257C139.76 69.7371 137.192 67.9008 134.442 66.6605C132.07 65.5384 129.903 64.8162 127.991 64.6226L127.19 64.3557C126.629 64.1094 126.044 64.0291 125.508 64.0291C123.078 64.0291 120.601 64.3646 118.082 65.0235C115.543 65.5628 113.131 66.4347 110.851 67.639C108.654 68.7405 106.667 70.1829 104.893 71.9565L104.865 71.9849L104.837 72.0144C103.228 73.7584 102.001 75.7587 101.161 78C99.0309 80.5446 97.149 83.3279 95.5141 86.3462L95.4984 86.3751L95.4837 86.4045C93.9383 89.4955 92.6464 92.5943 91.611 95.7008C90.583 98.7847 89.8069 101.817 89.2865 104.795C88.6415 107.774 88.3087 110.54 88.3087 113.085C88.3087 116.536 88.4999 120.229 88.8795 124.162C89.1459 128.241 90.0061 132.029 91.4784 135.509L91.491 135.539L91.5045 135.568C93.1497 139.133 95.5585 142.094 98.7114 144.427C98.7468 144.461 98.7913 144.496 98.8492 144.529C102.297 147.056 106.798 148.214 112.146 148.214C116.798 148.214 121.103 147.285 125.026 145.398C129.018 143.662 132.545 141.196 135.6 138.013C138.764 134.845 141.45 131.102 143.666 126.801C145.713 122.827 147.364 118.582 148.622 114.07C152.239 112.771 155.985 110.939 159.859 108.591C162.485 106.999 164.99 105.381 167.373 103.735C166.884 106.113 166.445 108.63 166.054 111.283C165.414 115.51 165.091 119.562 165.091 123.435C165.091 125.76 165.433 128.303 166.087 131.052L166.1 131.108L166.117 131.164C166.938 133.901 168.234 136.485 169.988 138.913L170.025 138.965L170.066 139.014C172.036 141.406 174.66 143.387 177.869 144.991C181.25 146.682 185.477 147.461 190.435 147.461C195.555 147.461 200.25 146.176 204.469 143.59L204.508 143.565C207.669 141.526 210.493 138.885 212.989 135.668C214.124 138.498 215.42 140.871 216.9 142.746L216.936 142.792L216.975 142.836C219.412 145.577 222.684 146.897 226.568 146.897C230.879 146.897 235.293 145.173 239.77 142.013C244.167 138.909 248.473 135.049 252.691 130.449C257.024 125.859 261.036 120.891 264.728 115.545C265.884 113.888 266.982 112.259 268.023 110.657C268.685 109.853 269.627 108.699 270.846 107.199L270.864 107.176L270.882 107.153C272.52 105.012 274.219 102.747 275.979 100.357C277.87 97.8362 279.577 95.4344 281.1 93.152C281.515 92.5766 281.9 92.0391 282.254 91.5399C282.629 92.499 283.005 93.4951 283.381 94.5283C283.895 96.1943 284.531 97.9731 285.286 99.8631C286.177 102.405 287.253 105.188 288.512 108.211C289.749 111.178 290.861 114.144 291.849 117.107L291.865 117.156L291.884 117.204C292.974 119.991 293.752 122.632 294.227 125.128L294.231 125.146C294.708 127.529 294.627 129.037 294.313 129.901C293.937 130.936 293.343 131.75 292.52 132.39L292.475 132.425L292.431 132.463C291.6 133.19 290.667 133.762 289.62 134.181L289.585 134.195L289.55 134.21C288.682 134.596 287.768 134.79 286.79 134.79C286.017 134.79 285.506 134.632 285.157 134.422C284.847 134.146 284.343 133.509 283.676 132.291C283.063 131.064 282.264 129.404 281.276 127.306C280.316 125.142 279.214 122.15 277.973 118.302L277.351 116.373L271.476 118.332C270.283 118.729 269.249 119.16 268.443 119.644L268.402 119.669L268.362 119.695C267.591 120.209 266.931 120.671 266.39 121.077L266.318 121.131L266.251 121.191C264.942 122.369 263.883 123.483 263.138 124.527C262.431 125.516 261.693 126.799 260.923 128.337C259.894 130.232 260.194 132.556 260.996 134.83L261.013 134.879L261.033 134.927C261.982 137.231 263.321 139.564 265.026 141.924L265.063 141.976L265.104 142.025C266.985 144.31 269.197 146.319 271.73 148.052L271.769 148.078C274.559 149.891 277.505 150.849 280.579 150.849C284.715 150.849 288.638 149.742 292.316 147.566C295.982 145.469 299.207 142.97 301.98 140.065C304.825 137.091 307.178 134.027 309.021 130.872ZM135.6 138.013L135.585 138.028L135.577 138.021L135.598 138.002L135.608 137.991L135.614 137.998L135.6 138.013ZM125.026 145.398L124.989 145.413L125.013 145.402L125.04 145.391L125.026 145.398ZM101.161 78C101.161 78 101.171 77.9946 101.178 77.9997L101.174 78.0069C101.163 78.0096 101.158 78.0076 101.161 78ZM128.143 78.3945C126.168 78.3945 124.205 78.9607 122.226 80.1701L122.198 80.1877C120.403 81.2436 118.652 82.7874 116.961 84.8741C116.723 85.6936 116.6 86.5632 116.6 87.4905C116.6 89.413 116.72 91.4692 116.964 93.6609C117.186 95.5398 117.734 97.2209 118.594 98.7271C119.381 100.104 120.649 101.366 122.514 102.474C124.381 103.39 127.087 103.926 130.778 103.926H132.461L132.873 103.844C133.12 102.737 133.334 101.735 133.514 100.835L133.528 100.767L133.546 100.7C133.893 99.4259 134.04 98.4203 134.04 97.6529V97.5475L134.051 97.4428C134.286 95.2021 134.288 92.8931 134.05 90.5131C133.813 88.1471 133.344 86.0625 132.662 84.2433L132.636 84.1749L132.616 84.1048C132.047 82.1725 131.29 80.7725 130.415 79.8001L130.345 79.7224L130.283 79.6379C129.599 78.6975 128.914 78.3945 128.143 78.3945ZM106.388 107.71C108.04 110.329 110.026 112.633 112.35 114.613L112.381 114.639L112.412 114.663C116.303 117.721 120.888 119.232 126.073 119.232H128.199C127.65 120.451 127.046 121.653 126.388 122.837L126.369 122.873C125.312 124.868 124.086 126.68 122.691 128.311C121.332 129.779 119.809 131.019 118.121 132.038C116.559 132.862 114.83 133.284 112.899 133.284C111.261 133.284 110.118 132.887 109.304 132.253C108.291 131.33 107.464 130.198 106.829 128.829C106.168 127.279 105.714 125.535 105.484 123.584C105.242 121.401 105.121 119.218 105.121 117.037C105.121 114.927 105.355 112.676 105.834 110.279C106.004 109.431 106.189 108.575 106.388 107.71Z" fill="#2C7BE5"/>
</svg>
