<svg xmlns="http://www.w3.org/2000/svg" xmlns:xlink="http://www.w3.org/1999/xlink" viewBox="0 0 150.03 180.96"><defs><style>.cls-1{fill:url(#linear-gradient);}</style><linearGradient id="linear-gradient" y1="90.48" x2="150.03" y2="90.48" gradientUnits="userSpaceOnUse"><stop offset="0" stop-color="#c622ca"/><stop offset="0.46" stop-color="#de21b8"/><stop offset="1" stop-color="#ff209f"/></linearGradient></defs><g id="Layer_2" data-name="Layer 2"><g id="Layer_3" data-name="Layer 3"><path class="cls-1" d="M106.17,181a8.7,8.7,0,0,1-6.28-2.69L71.15,148.66H49a111.58,111.58,0,0,1-14.28-1.09l-.68-.13-.14,0C3,140,.16,112.64.05,111.47l0-.81V41.87c0-.84,0-1.75,0-2.66v-.59C0,32.61,6.27,6.87,35.18.85A40.07,40.07,0,0,1,43.3,0c9.76,0,19.31,3.8,27.61,11,1.4,1.21,2.77,2.53,4.11,3.94A56.07,56.07,0,0,1,79.13,11C87.43,3.8,97,0,106.73,0a40.07,40.07,0,0,1,8.12.85C143.76,6.87,150,32.61,150,38.66v.56c0,.9,0,1.81,0,2.72v69l0,.27,0,.27c-.11,1.17-2.94,28.52-33.86,35.94l-.69.14-.41.06v24.53a8.68,8.68,0,0,1-2.76,6.42,9.07,9.07,0,0,1-6.09,2.4ZM79.48,131.39,97,149.46v-9.87a9.17,9.17,0,0,1,8.6-9.14c2.42-.15,4.68-.36,6.69-.64,16.6-4.18,19.35-17.44,19.71-19.71v-20c-9.08,12-23,27.2-34.12,38.92a8.85,8.85,0,0,1-6.39,2.75,8.72,8.72,0,0,1-6.21-2.58l-.3-.3a8.75,8.75,0,0,1-.17-12.27c14.13-14.89,32.26-34.86,38.4-45.46,5.6-9.68,8.56-19.61,8.79-29.51v-2h0s0-.6,0-.79c-.24-1.68-2.86-16.64-20.84-20.39a16.66,16.66,0,0,0-3.43-.36c-15,0-25.68,20.6-25.78,20.81L81.9,39c-1.22,2.15-3.8,3.44-6.9,3.44S69.27,41.15,68.07,39L68,38.87C67.9,38.67,57.47,18,43.28,18a21.81,21.81,0,0,0-4.43.47C31.11,20.08,25.27,23.94,21.5,30a24.54,24.54,0,0,0-3.48,9c0,.16,0,.73,0,.73h0v2c.22,9.84,3.18,19.77,8.79,29.45,8.09,14,37.09,44.29,49.18,56.68l3.47,3.56Zm-41.76-1.58a94.92,94.92,0,0,0,11.3.85H53.7C42.64,119.05,27.62,102.74,18,90.09v20C18.37,112.37,21.12,125.63,37.72,129.81Z"/></g></g></svg>